#define dn_arrow_width 9
#define dn_arrow_height 9
static unsigned char dn_arrow_bits[] = {
  0x00, 0x00, 0xfe, 0x00, 0xfe, 0x00, 0x7c, 0x00, 0x7c, 0x00, 0x38, 0x00,
  0x38, 0x00, 0x10, 0x00, 0x10, 0x00, };
