/* XPM */
static char * kpostit_xpm[] = {
"25 30 2 1",
" 	c #AEBAFFFFA699",
".	c #000000000000",
"                       ..",
"                       ..",
"                       ..",
"                       ..",
"                       ..",
"                       ..",
"                       ..",
"                       ..",
"                       ..",
"                       ..",
"                       ..",
"                       ..",
"                       ..",
"                       ..",
"                       ..",
"                       ..",
"                       ..",
"                       ..",
"                       ..",
"                       ..",
"                       ..",
"                       ..",
"                       ..",
"                       ..",
"                       ..",
"                       ..",
"                       ..",
"                       ..",
".........................",
"........................."};
