/* XPM */
/* Drawn  by Nico Shirwing for the K Desktop Environment */
/* See http://www.kde.org */
static char*knotes[]={
"32 32 16 1",
"# c #000000",
"a c #ffffff",
"c c #808080",
"b c #c0c0c0",
"h c #ff0000",
"l c #800000",
"n c #004000",
"j c #00c0c0",
"i c #00ffff",
"k c #808000",
"d c #c0c000",
"e c #ffff00",
"f c #ffffc0",
"m c #ffa858",
"g c #ffdca8",
". c None",
"..........................##....",
".........................#ab#...",
".........................#ac#...",
"........................#####...",
"........................####....",
".......................#####....",
".......................#a##.....",
"......................#abc#.....",
"......................#ac#......",
".....................#abc#......",
".....................#ac#.......",
"................##..#abc#.......",
"..............##de###ac#........",
"............##effff#abc#........",
"..........##dfgffff#ac##........",
"........##effffhff###c#e##......",
"......##dffgffhhff#ii#fffd##....",
"....##efffffffhhf###j#fffffe##..",
"..##dfgffhhhhhhhh#ac#hhfffgffd##",
"##efffffhhhhhhhh#abc#hhhffffkkd#",
"#fddffffffffffhh#bc#ffffffkkddd#",
"#efeddffffffffhh#l#fffffkkdddkk#",
"#ddffmddfffffffh##ffffkkdddkkdd#",
"#mfddfefddfffffffdddkkdddkkddk##",
"#ndmfddfefddfffffdkkdddkkddk##..",
"..#ndfeddmfeddffkkdddkkddk##....",
"....##dmfddffmdddddkkddk##......",
"......#ndefddefddkkddk##........",
"........##dmfddkkddk##..........",
"..........#ndfeddk##............",
"............##dk##..............",
"..............##................"};

