/* XPM */
static char * knotes_xpm[] = {
/* Copyright (C) 1997 Jonathan Buzzard. Licensed under the terms of the GNU library General Public License */
"32 32 10 1",
" 	c None",
".	c #ffcc99",
"X	c black",
"o	c #999966",
"O	c #993300",
"+	c #996600",
"@	c #996633",
"#	c #ffffcc",
"$	c #666666",
"%	c #cccc99",
"                  ..            ",
"                 .XX.           ",
"                 o..O           ",
"                 oo+O           ",
"                 @@+O           ",
"                 o@+O           ",
"                 o@+O           ",
"             XX  o++O           ",
"            X##XX@o+O           ",
"           X#####o@+O           ",
"          X######o@OO           ",
"         X##XX###o@OOXX         ",
"        X#####XX#o++O##XX       ",
"       X##XX#####o+OO####XX     ",
"      X#####XX###@@@O######XX   ",
"     X##XX####XX#@+OOX#######X  ",
"    X############o++O#XX####$X  ",
"   X##XX####XX###@@OO######$oX  ",
"  X#####XX####XX#@++OX####$o$X  ",
" X###############.OO%####$o$oX  ",
" X$#########XX###..%%###$o$oX   ",
" Xo$$#########XX##.%###$o$oX    ",
" X$oo$$#########X#XX##$o$oX     ",
" Xo$$oo$$#########X##$o$oX      ",
" XXoo$$oo$$#########$o$oX       ",
"   XXoo$$oo$$######$o$oX        ",
"     XXoo$$oo$$###$o$oX         ",
"       XXoo$$oo$$$o$oX          ",
"         XXoo$$ooo$oX           ",
"           XXoo$$$oX            ",
"             XXoooX             ",
"               XXX              "};
